<?xml version="1.0" encoding="utf-8"?>
<!-- Generator: Adobe Illustrator 22.0.0, SVG Export Plug-In . SVG Version: 6.00 Build 0)  -->
<svg version="1.1" id="_x37C_" xmlns="http://www.w3.org/2000/svg" xmlns:xlink="http://www.w3.org/1999/xlink" x="0px" y="0px"
	 viewBox="0 0 573.3 619.4" style="enable-background:new 0 0 573.3 619.4;" xml:space="preserve">
<style type="text/css">
	.st0{fill-rule:evenodd;clip-rule:evenodd;fill:#3B71B8;}
	.st1{fill-rule:evenodd;clip-rule:evenodd;fill:#E83436;}
	.st2{fill-rule:evenodd;clip-rule:evenodd;fill:#618CC8;}
</style>
<path class="st0" d="M357.1,291.3c0-0.2,0-0.4-0.1-0.6c-14.2,14.9-33,25.6-54.8,29.7c-55.5,10.5-109-26-119.5-81.5
	c-10.5-55.5,26-109,81.5-119.5c55.5-10.5,109,26,119.5,81.5c4.1,21.8,1,43.2-7.7,61.9c0.2,0,0.4-0.1,0.6-0.1
	c13.3-2.5,26.1,6.2,28.7,19.5c13.3-26.1,18.4-56.7,12.6-87.7C403.8,120,332.1,71.1,257.7,85.2c-74.4,14.1-123.3,85.8-109.2,160.2
	c14.1,74.4,85.8,123.3,160.2,109.2c31-5.9,57.6-21.8,77-43.7C372.4,313.3,359.6,304.6,357.1,291.3z"/>
<path class="st0" d="M393.1,283.7c1.7,6.6-2.3,13.3-8.9,14.9c-6.6,1.7-13.3-2.3-14.9-8.9c-1.7-6.6,2.3-13.3,8.9-14.9
	C384.8,273.1,391.4,277.1,393.1,283.7z"/>
<path class="st0" d="M439,305.6c2.5,9.9-3.4,19.9-13.3,22.4c-9.9,2.5-19.9-3.4-22.4-13.3c-2.5-9.9,3.4-19.9,13.3-22.4
	C426.5,289.8,436.5,295.7,439,305.6z"/>
<path class="st0" d="M499.2,334.8c3.8,14.8-5.2,29.8-19.9,33.6c-14.8,3.8-29.8-5.2-33.6-19.9c-3.8-14.8,5.2-29.8,19.9-33.6
	C480.4,311,495.4,320,499.2,334.8z"/>
<g>
	<path class="st0" d="M47.3,413.3c0.8,9,10,14.7,19.5,16.5c12.4,2.3,22.1-0.4,33.7-1.8l-0.1,18.3c-13.6,0-27.3,0-40.9,0
		c-8.3,0-24.3-2.3-26.5,13.9l67.5,0.2c1.2,13.3,0.4,34.9-0.5,48.5c-0.5,7.8-1.3,15.5-2.8,22.9c-2.3,11.7-3.8,11.3-6.4,18.9
		c17.4-1.3,22.9-16.1,24.5-33.8c1.5-16.8-0.5-46.9,0.8-56.5c12-0.9,26.9-0.1,39.2-0.1c7.9,0,23.6,2.1,25.8-13.9l-65.1-0.1
		c-0.2-3.6-0.1-7.3-0.1-10.9l0.3-9c0-0.1,0.2-0.2,0.2-0.4c0.1-0.8,29.1-6.4,35.6-8.1l10.5-3.2c0.1-0.2,0.3-0.2,0.4-0.3
		c-1.1-1.6-7.4-8.3-8.8-9.2c-4.5-2.8-9.9-0.6-14.8,0.5c-9.8,2.2-19.7,4.2-29.9,6C91.4,414.5,63.9,419.8,47.3,413.3z"/>
	<g>
		<path class="st0" d="M355.1,417.9c3.6,15.3,10.2,12,25.8,12c12.8,0,25.7,0,38.5,0c-0.9,5.6-0.8,4.3-7,4.2l-30.6,0.2l-0.1,76.2
			c-11.8,0-23.3-3.1-26.7,11.8c9.3,0.7,137.6,0.4,139.9-0.3c5.6-1.8,7.1-8.3,8.6-11.5l-27.6,0l-0.2-76.4l-43,0l0.7-4.1
			c12.1-1,27.7-0.1,40.1-0.1c14.6,0,24.8,2.5,27.9-12.2l-65.5,0c-2.8-6.5-5.7-13.2-11.9-15.3l-3,15.3L355.1,417.9L355.1,417.9z
			 M402,510.6L402,510.6c-1.5,0-2.7-1.2-2.7-2.7V503c0-1.5,1.2-2.7,2.7-2.7h54.6c1.5,0,2.7,1.2,2.7,2.7v4.9c0,1.5-1.2,2.7-2.7,2.7
			H402L402,510.6z M402,491.9L402,491.9c-1.5,0-2.7-1.2-2.7-2.7v-4.9c0-1.5,1.2-2.7,2.7-2.7h54.6c1.5,0,2.7,1.2,2.7,2.7v4.9
			c0,1.5-1.2,2.7-2.7,2.7H402L402,491.9z M402,473.2L402,473.2c-1.5,0-2.7-1.2-2.7-2.7v-4.9c0-1.5,1.2-2.7,2.7-2.7h54.6
			c1.5,0,2.7,1.2,2.7,2.7v4.9c0,1.5-1.2,2.7-2.7,2.7H402L402,473.2z M402,454.5L402,454.5c-1.5,0-2.7-1.2-2.7-2.7v-4.9
			c0-1.5,1.2-2.7,2.7-2.7h54.6c1.5,0,2.7,1.2,2.7,2.7v4.9c0,1.5-1.2,2.7-2.7,2.7H402z"/>
		<path class="st0" d="M482.2,551.9c2.3-0.5-0.3-0.8-2.4-1.9c-11.5-5.8-11.8-13.8-19.6-20.7c-1.2-1-3.3-2.1-3.8-2.4l-13.2-0.3
			C448.3,539.3,464.1,551.2,482.2,551.9z"/>
		<path class="st0" d="M374.8,551.8c14.3,0.8,34.6-10.4,40.1-25.2c-14.5-0.1-16.4-0.2-22.8,10C386,546.4,383.5,546.6,374.8,551.8z"
			/>
	</g>
	<g>
		<path class="st0" d="M284.2,417.8c-3.6,1-10.8,1-14.5,0.1c-3.9-1-49.9-0.4-58.1-0.4c0,32.8,1.8,75.6-6.1,107.2
			c-4.4,17.7-6.9,17.2-11.5,26.8c23.6-0.6,26.5-25.5,29.2-47.4c1.4-11.7,2.2-23.8,2.4-35.7c0.2-11.4-0.7-26.8,0.3-37.6h115.8
			c-1.3-16-15.8-13.3-22.6-13.3C312.3,417.5,289.1,416.6,284.2,417.8z"/>
		<path class="st0" d="M281.5,524.7c-5.4-2.9-15.7-11.7-18.7-17.2c-2.9-5.5-0.3-9.9,4.1-11.6c6.3-2.5,10.1,1.2,15.2,1.1
			c5.5-0.2,8.5-3.6,14.9-0.8C312.4,503,286.4,522.5,281.5,524.7L281.5,524.7z M293.9,531.9L293.9,531.9c2.1-2,4.7-2.9,6.8-4.8
			c6.9-6.1,10.3-9.6,16.1-17.3c7-9.1,12.8-15.6,2.7-20.9c-3.6-1.9-5.3-1.4-9.6-1.4c-15,0-30.1,0-45.1,0c-14.3,0-33.6-3.8-33.5,11.5
			l10.8,0l12.2,18c6.5,9.4,9.3,9.1,15.1,14.5c-9.1,5.7-37.5,18.3-40.1,20.2c9.2,0.1,20.5-2.5,28.8-4.7c3.7-1,23.4-8.5,23.8-8.5
			c0.6,0,10,4.1,11.7,4.8c4,1.5,7.9,2.8,12.1,4c6.6,1.8,20.9,5.3,28,4.4c-2.6-1.6-7.3-3.5-10.2-4.8
			C313.4,542.1,302.1,535.5,293.9,531.9z"/>
		<path class="st0" d="M257.2,463.4c0-4.9,1.1-6,5.8-6h40.2c2.9,0,4.8,0.2,5.6,2.1c0.5,8.1,1.5,13.1-5.6,13.1H263
			C256.5,472.6,257.2,468.9,257.2,463.4L257.2,463.4z M229.5,457.2L229.5,457.2l13.7,0.6c0,8.4-2.4,21.2,7.7,25.2
			c4.2,1.7,35.9,0.9,41.8,0.9c7.4,0,21,1.5,25.9-2.5c7-5.7,3.5-14.5,4.6-23.8c9.2-0.5,11.5-4.1,14.2-11.7l-14.3-0.1L323,434
			c-9.3,1.9-11.2,6.4-14,11.8l-51.4-0.1c-2.3-3-3.2-9.6-14.1-11.7l-0.2,11.7c-5,0.5-6.1,0.3-9.5,3.5
			C231.5,451.4,230.1,452.9,229.5,457.2z"/>
		<path class="st0" d="M269.8,418c3.7,0.9,10.8,0.9,14.5-0.1c-1.1-7.2-6.7-13.4-11.5-15.5L269.8,418z"/>
	</g>
</g>
<path class="st1" d="M294.7,215.6c2.4,6.4-0.9,13.4-7.2,15.8c-6.4,2.4-13.4-0.9-15.8-7.2c-2.4-6.4,0.9-13.4,7.2-15.8
	C285.3,206,292.3,209.2,294.7,215.6z"/>
<path class="st2" d="M271.9,165.9v2.9h8v4.3h-6.8v3.2h6.8v0.7h1.1v3.6h-6.6v3.2h6.6v4.3h-5.5v3.2h5.5v4.3h-3.9
	c0,4.3-0.6,3.4,3.9,3.4v1.9h4.5v-1.9c4.5,0,3.9,1,3.9-3.4h-3.9v-4.3h5.5V188h-5.5v-4.3h6.6v-3.2h-6.6V177h1.1v-0.7h6.8v-3.2h-6.8
	v-4.3h8c0-0.9,0.4-3.4-0.5-3.4h-7.5v-8.7c1.8-0.7,10.7,1.3,12.9,1.9c7.6,1.9,14.2,5.2,20.4,9.6c2.2,1.6,4.2,3.3,6.2,5l2,1.9
	c0.7,0.7,1.2,1.1,1.8,1.9l1.8,2c7.5,8.4,12.4,19.6,14.2,30.7c0.3,2.1,0.7,4.6,0.7,7h-8.9v-7.5c0-0.9-2.2-0.5-2.9-0.5
	c-0.4,0-0.5,0.1-0.5,0.5v7.5h-4.1v-6.2c0-0.9-2.2-0.5-2.9-0.5c-0.9,0-0.5,2.3-0.5,3c0,1.2,0,2.5,0,3.7c-0.8,0.1-0.7,0.4-0.7,1.1
	h-3.4v-6.4h-3.4v6.4H315v-5.5h-3.2v5.5h-4.3v-3.9c-4.1,0-3.2-0.7-3.2,3.9h-2c0,2.6-0.4,4.6,0.5,4.6h1.4v3.7h3.2v-3.7h4.3v5
	c0,0.9,2.5,0.5,3.2,0.5v-5.5h4.3v6.4c0.9,0,3.4,0.4,3.4-0.5v-5.9h3.2c0.5,0.8-0.2,1,0.9,1.1l0,5.4c0,1.8,0.7,1.2,3.4,1.2v-6.6h4.1
	v7.8h3.4v-7.8h8.9c0,11.3-5.2,24.3-11.6,33.3c-0.5,0.7-1.1,1.5-1.6,2.1c-1.1,1.4-2.2,2.8-3.4,4.1l-1.9,2.1c-2.6,2.4-5.2,4.8-8.2,6.8
	c-5,3.4-9.1,5.6-14.7,7.8c-4.7,1.9-10,3.1-15.2,3.6c-0.7,0.1-3.2,0.2-3.6,0.4v-9.1h8v-3.2h-8v-4.3h6.8v-3.2h-6.8v-0.7h-1.1v-3.6h6.1
	c0.9,0,0.5-2.2,0.5-2.9c0-0.4-0.1-0.5-0.5-0.5h-6.1v-4.1h5.5v-3.4h-5.5v-4.1c4.5,0,3.9,1,3.9-3.4h-3.9v-1.6c0-0.9-2.3-0.5-3.9-0.5
	c-0.4,0-0.5,0.1-0.5,0.5v1.6h-3.9c0,4.3-0.6,3.4,3.9,3.4v4.1h-5.5v3.4h5.5v4.1h-6.1c-0.9,0-0.5,2.5-0.5,3.4h6.6v3.6h-1.1v0.7h-6.8
	v3.2h6.8v4.3h-8v3.2h8v9.1c-0.4-0.2-2.8-0.3-3.4-0.4c-5.1-0.4-10.5-1.7-15.2-3.5c-7.7-3-12.4-5.9-18.9-11l-2-1.8c-1-1-2-1.8-2.9-2.8
	l-3.5-4c-0.3-0.4-0.5-0.7-0.9-1.1c-2.8-3.6-5.1-7.5-7.1-11.6c-3.4-6.8-6.1-15.9-6.1-24h8.9v7.8h3.4v-7.8h4.1v6.6
	c4.3,0,3.4,1.3,3.4-6.6c0.8-0.1,0.7-0.4,0.7-1.1h3.4v5.9c0,0.9,2.5,0.5,3.4,0.5v-6.4h4.3v5.5c4.1,0,3.2,1.1,3.2-5.5h4.3v3.7h3.2
	v-3.7h1.6c0.9,0,0.5-2.1,0.5-4.6h-2.1c0-4.6,0.9-3.9-3.2-3.9v3.9h-4.3v-5.5h-3.2v5.5h-4.3v-6.4h-3.4v6.4h-3.4c0-0.7,0.1-1-0.7-1.1
	l0-5.4c0-2-0.5-1.4-2.9-1.4c-0.4,0-0.5,0.1-0.5,0.5v6.2h-4.1v-7.5c0-0.9-2.2-0.5-2.9-0.5c-0.4,0-0.5,0.1-0.5,0.5v7.5h-8.9
	c0-2.3,0.4-4.8,0.7-6.8c0.4-2.3,0.8-4.1,1.3-6.2c1.5-5.9,4.1-11.8,7.3-16.9c2.7-4.3,7.3-10.6,11.1-13.5l2-1.8c2-1.7,4.2-3.4,6.4-4.8
	c7.3-4.6,15.5-8.1,24.3-9.4c1.2-0.2,6-0.9,6.9-0.6v8.7l-6.4,0C272.7,165.4,271.9,165.2,271.9,165.9L271.9,165.9z M279.9,149.9
	c-8.4,0-19.7,3.1-27.1,6.8c-1.9,0.9-3.6,1.8-5.3,2.9c-2.5,1.5-7.3,4.8-9.7,6.9c-2,1.7-3.5,3.1-5.3,5.1c-0.7,0.7-1.4,1.2-2,2.1
	c-1.6,2.1-2.7,3.1-4.6,5.9c-1.2,1.6-2.2,3.2-3.2,5c-4.6,8.1-8.6,18.6-9.3,28.2c-0.1,1.2-0.4,2.7-0.4,3.9H194v6.2
	c0,0.4,0.1,0.5,0.5,0.5h18.5l0.3,3.8c0.9,9.6,3.5,17.2,7.7,25.6c3.9,7.8,11.9,17.3,19,22.6c0.9,0.6,1.6,1.2,2.4,1.8
	c8.8,6.4,19,10.3,29.7,12.1c2.3,0.4,5.1,0.8,7.6,0.8v19.1h6.6V290c4.3,0,10.3-1.2,14.4-2.2c8.8-2.2,18-6.8,25.1-12.3
	c0.8-0.7,1.6-1.2,2.4-1.9c6.5-5.7,10.7-10.4,15.3-18c1.1-1.8,2-3.5,2.9-5.4c0.5-0.9,0.8-1.9,1.3-2.8c2.2-4.9,3.9-11,4.7-16.3
	l0.6-5.6c0-1,0.2-1.1,0.2-2h18.5c0.4,0,0.5-0.1,0.5-0.5v-6.2h-19.1l-0.8-7.4c-1.7-11-6.8-23.4-13.7-31.9c-0.7-0.8-1.2-1.4-1.8-2.3
	l-10.5-10.2c-0.5-0.4-0.7-0.6-1.2-0.9c-0.4-0.3-0.8-0.6-1.3-0.9c-8.3-6.1-19-10.5-29.3-12.3c-3-0.5-5.1-0.8-8.3-0.8v-19.3h-6.6
	V149.9z"/>
</svg>
