<svg id="图层_1" data-name="图层 1" xmlns="http://www.w3.org/2000/svg" xmlns:xlink="http://www.w3.org/1999/xlink" viewBox="0 0 38 38"><defs><style>.cls-1{fill:none;}.cls-2{fill:#3cb3ff;}.cls-3{clip-path:url(#clip-path);}.cls-4{fill:#fff;}</style><clipPath id="clip-path"><rect class="cls-1" x="7.42" y="7.41" width="23.16" height="23.19"/></clipPath></defs><title>图标</title><circle class="cls-2" cx="19" cy="19" r="19"/><g class="cls-3"><path class="cls-4" d="M16.72,28.93l5.07-5.07.09-.1a5.42,5.42,0,0,0-.22-7.43,4.11,4.11,0,0,0-.55-.48l-1.24,1.61a2,2,0,0,1,.35.31,3.38,3.38,0,0,1,0,4.76l-4.93,4.92h0l-.09.09a3.39,3.39,0,0,1-4.79-4.79l.12-.11h0l2.38-2.38L11.5,18.82,9.06,21.27H9l0,0A5.42,5.42,0,0,0,16.67,29l0,0s0,0,0,0Zm0,0"/><path class="cls-4" d="M18.22,20.61a5.23,5.23,0,0,1-.45-.39,3.39,3.39,0,0,1,0-4.79l.11-.11h0L22.8,10.4a3.38,3.38,0,0,1,4.77,4.8L25.1,17.67l1.44,1.44L29,16.67l.13-.13.1-.11a5.42,5.42,0,0,0-7.65-7.65.48.48,0,0,0-.11.09L16.33,14a5.41,5.41,0,0,0,0,7.66,5.66,5.66,0,0,0,.52.47Zm0,0"/></g><path class="cls-4" d="M11.19,19.64a1,1,0,0,0,.57.84,1,1,0,0,0,1-.08,1,1,0,0,0,.44-.92,1,1,0,0,0-.57-.84,1.06,1.06,0,0,0-1,.08,1,1,0,0,0-.43.92Zm0,0"/><path class="cls-4" d="M19.49,16.74a1,1,0,0,0,.58.84,1,1,0,0,0,1-.08,1,1,0,0,0,.44-.92,1,1,0,0,0-1.59-.75,1,1,0,0,0-.44.91Zm0,0"/><path class="cls-4" d="M16.5,21.42a1,1,0,1,0,.93-1.09,1,1,0,0,0-.93,1.09Zm0,0"/><path class="cls-4" d="M26.26,17.48a1,1,0,0,0-.88,1.83,1,1,0,0,0,1-.08,1,1,0,0,0-.13-1.75Z"/></svg>