<svg width="38" height="38" xmlns="http://www.w3.org/2000/svg"><g transform="translate(1 1)" fill="none" fill-rule="evenodd"><circle stroke="#F0F1F2" fill="#FFF" cx="18" cy="18" r="18"/><path d="M21.882 14.368c.253 0 .503.019.75.045-.673-3.101-4.025-5.406-7.85-5.406C10.503 9.007 7 11.892 7 15.555c0 2.114 1.166 3.85 3.114 5.197l-.778 2.317 2.72-1.35c.973.19 1.754.387 2.725.387.244 0 .486-.012.727-.031a5.671 5.671 0 0 1-.24-1.613c0-3.364 2.918-6.094 6.614-6.094zM17.7 12.28c.586 0 .974.382.974.961 0 .577-.388.964-.974.964-.583 0-1.168-.387-1.168-.964 0-.579.585-.96 1.168-.96zm-5.445 1.925c-.584 0-1.172-.387-1.172-.964 0-.579.588-.96 1.172-.96.583 0 .971.381.971.96 0 .577-.388.964-.971.964zm16.73 6.164c0-3.078-3.113-5.587-6.609-5.587-3.702 0-6.617 2.509-6.617 5.587 0 3.083 2.915 5.587 6.617 5.587.775 0 1.556-.192 2.335-.386l2.134 1.157-.585-1.924c1.562-1.16 2.725-2.697 2.725-4.434zm-8.755-.964c-.387 0-.778-.38-.778-.77 0-.384.391-.77.778-.77.589 0 .974.386.974.77 0 .39-.385.77-.974.77zm4.28 0c-.384 0-.773-.38-.773-.77 0-.384.389-.77.773-.77.584 0 .974.386.974.77 0 .39-.39.77-.974.77z" fill-rule="nonzero" fill="#97D271"/></g></svg>