<svg width="38" height="38" xmlns="http://www.w3.org/2000/svg"><g transform="translate(1 1)" fill="none" fill-rule="evenodd"><circle stroke="#F0F1F2" fill="#FFF" cx="18" cy="18" r="18"/><path d="M25.8 17.007c.048-1.427.135-9.05-7.835-9.007-7.967-.043-7.85 7.639-7.797 9.069-1.476 1.715-2.474 5.861-2.083 5.925.96.149 1.615-.345 2.083-.842.254-.274.282-.203.373.041.08.232.85 1.697 1.072 2.038.19.29.133.437-.216.504-.35.065-.837.356-1.165.798-.53.72-.002 1.437 1.074 1.783 3.11.997 5.48.03 5.684-.09.048-.03.441-.153.53-.184l.426-.03c.331 0 .506.061.506.061.23.066.36.128.608.217.222.077 2.69 1.023 5.729-.04.992-.343 1.431-.984.989-1.618-.346-.48-.713-.77-1.307-.92-.289-.076-.343-.151-.175-.38.23-.32.954-1.76 1.045-1.989.09-.215.182-.492.383-.203.378.542 1.448 1.139 2.124.854.63-.27-.83-4.39-2.048-5.987" fill="#71CBF2"/></g></svg>