<svg width="38" height="38" xmlns="http://www.w3.org/2000/svg"><g transform="translate(1 1)" fill="none" fill-rule="evenodd"><circle stroke="#F0F1F2" fill="#FFF" cx="18" cy="18" r="18"/><g fill-rule="nonzero"><path d="M18.01 7c-.415 0-.83.022-1.242.067-.978.11-1.937.35-2.852.713 0 0 7.43 7.311 7.62 7.59V7.568a22.744 22.744 0 0 1-.672-.211A11.5 11.5 0 0 0 18.01 7z" fill="#FB8A88"/><path d="M25.765 10.187a11.052 11.052 0 0 0-3.457-2.33s.054 10.399 0 10.733l5.538-5.516c-.101-.212-.224-.412-.336-.613a10.707 10.707 0 0 0-1.745-2.274z" fill="#A0A1ED"/><path d="M28.192 13.932s-7.34 7.4-7.619 7.59h7.832a22 22 0 0 1 .213-.67c.252-.921.38-1.873.38-2.829 0-.413-.022-.826-.067-1.237-.134-1.003-.369-1.961-.737-2.853l-.002-.001z" fill="#8CABF0"/><path d="M17.295 22.335l5.538 5.517c.213-.1.414-.223.627-.335a10.85 10.85 0 0 0 3.11-2.663 10.993 10.993 0 0 0 1.51-2.52s-10.45.055-10.785 0v.001z" fill="#73CBF1"/><path d="M14.464 20.608v7.801c.224.067.459.134.671.212a10.86 10.86 0 0 0 2.841.379c.415 0 .83-.022 1.242-.067a11.515 11.515 0 0 0 2.853-.713c0-.022-7.418-7.344-7.608-7.612h.001z" fill="#97D271"/><path d="M13.681 17.365L8.143 22.88c.1.212.224.413.336.624a10.816 10.816 0 0 0 2.675 3.099 11.054 11.054 0 0 0 2.528 1.504c0-.022-.055-10.42 0-10.743h-.001z" fill="#B5D66E"/><path d="M7.37 15.147a10.733 10.733 0 0 0-.368 2.83c0 .414.022.827.067 1.238.111.974.352 1.93.716 2.842 0 0 7.34-7.401 7.608-7.59h-7.81c-.078.234-.156.446-.212.68z" fill="#FDD863"/><path d="M12.473 8.505a10.512 10.512 0 0 0-2.272 1.738c-.302.301-.57.613-.828.925a10.993 10.993 0 0 0-1.51 2.52s10.45-.055 10.774 0L13.088 8.18c-.201.1-.414.212-.615.324z" fill="#FFAF75"/></g></g></svg>