<svg width="38" height="38" xmlns="http://www.w3.org/2000/svg"><g fill="none" fill-rule="evenodd"><circle stroke="#F0F1F2" fill="#FFF" cx="19" cy="19" r="18"/><g fill-rule="nonzero" fill="#EC8686"><path d="M29.707 17.644v.003a.842.842 0 1 1-1.603-.52l-.001-.001a4.157 4.157 0 0 0-.864-4.06 4.132 4.132 0 0 0-3.94-1.279.845.845 0 0 1-.352-1.651 5.81 5.81 0 0 1 5.542 1.798 5.85 5.85 0 0 1 1.218 5.71z"/><path d="M23.874 14.488a.727.727 0 0 1-.302-1.42 2.827 2.827 0 0 1 2.699.873c.705.783.892 1.848.592 2.782a.725.725 0 1 1-1.378-.446h-.002a1.388 1.388 0 1 0-1.61-1.788zm.644 4.12c-.31-.093-.522-.157-.36-.565.35-.885.387-1.65.007-2.195-.714-1.023-2.668-.967-4.906-.027 0-.001-.703.308-.523-.251.344-1.11.293-2.04-.244-2.577-1.214-1.22-4.444.046-7.213 2.822C9.205 17.896 8 20.101 8 22.008c0 3.646 4.663 5.863 9.225 5.863 5.98 0 9.959-3.484 9.959-6.251 0-1.67-1.406-2.62-2.666-3.012zm-7.281 7.956c-3.64.361-6.782-1.29-7.019-3.687-.236-2.395 2.524-4.631 6.164-4.992 3.64-.361 6.782 1.29 7.018 3.685.236 2.399-2.523 4.633-6.163 4.994z"/><path d="M17.6 19.73c-1.731-.452-3.69.414-4.442 1.944-.766 1.562-.025 3.294 1.725 3.86 1.813.587 3.95-.31 4.692-1.996.733-1.647-.182-3.343-1.975-3.808zm-1.322 3.986c-.352.564-1.106.81-1.674.55-.56-.254-.725-.91-.373-1.458.348-.548 1.077-.79 1.64-.555.57.245.753.894.407 1.463z"/></g></g></svg>