<svg id="图层_1" data-name="图层 1" xmlns="http://www.w3.org/2000/svg" viewBox="0 0 38 38"><defs><style>.cls-1{fill:#e6162d;}.cls-2{fill:#fff;}</style></defs><title>图标</title><circle class="cls-1" cx="19" cy="19" r="19"/><path class="cls-2" d="M26,17.63c-.29-.09-.43-.14-.5-.28s-.08-.17,0-.47a2.66,2.66,0,0,0,0-2.58,2.45,2.45,0,0,0-2.18-.87,9.72,9.72,0,0,0-3.61.86l-.07,0-.07,0a.85.85,0,0,1-.3.05.28.28,0,0,1-.24-.1s-.08-.15,0-.37c.42-1.36.32-2.43-.27-3a2.06,2.06,0,0,0-1.52-.54c-1.9,0-4.65,1.54-7,3.92s-3.89,5.19-3.89,7.39c0,4.36,5.57,7,11,7,7.33,0,11.83-4.33,11.83-7.44,0-1.61-1.17-2.94-3.14-3.56Zm-8.66,8.53c-.31,0-.62.05-.92.05-3.19,0-5.67-1.64-5.89-3.89-.25-2.5,2.36-4.74,5.93-5.1.31,0,.62,0,.93,0,3.19,0,5.67,1.64,5.89,3.89.25,2.5-2.36,4.74-5.94,5.1Zm13.23-9.8a.84.84,0,0,1-.82-1,4.78,4.78,0,0,0,.14-1.19,5,5,0,0,0-5-5,4.44,4.44,0,0,0-.63,0A.87.87,0,0,1,23.64,9a.88.88,0,0,1-.31-.56h0a.84.84,0,0,1,.72-.92,5.92,5.92,0,0,1,.84,0,6.72,6.72,0,0,1,6.72,6.72,7,7,0,0,1-.18,1.58.84.84,0,0,1-.82.65Zm0,0"/><path class="cls-2" d="M27.65,15.27a.78.78,0,0,1-.58-.27.74.74,0,0,1-.16-.61,2.6,2.6,0,0,0,0-.4,2,2,0,0,0-.61-1.35A2,2,0,0,0,25,12.11h-.08a.76.76,0,0,1-.55-1.27.76.76,0,0,1,.53-.23A3.45,3.45,0,0,1,28.44,14a3.3,3.3,0,0,1-.05.7.75.75,0,0,1-.74.62Zm-8.53,5.6a2.76,2.76,0,0,0-1.81-1.41,3.8,3.8,0,0,0-.89-.11,3.7,3.7,0,0,0-3.3,1.94A2.51,2.51,0,0,0,13,23.36a2.66,2.66,0,0,0,1.67,1.46,3.29,3.29,0,0,0,1.08.16,3.68,3.68,0,0,0,3.34-2.05,2.4,2.4,0,0,0,0-2.06Zm-4.18,2.68h0a.71.71,0,0,1-.88-.62.92.92,0,0,1,.84-.87c.55,0,.92.26.92.67a.92.92,0,0,1-.88.82Zm1.54-1.29a.3.3,0,0,1-.45,0,.37.37,0,0,1,.11-.49.32.32,0,0,1,.48,0,.41.41,0,0,1-.14.49Zm0,0"/></svg>