<?xml version="1.0" encoding="utf-8"?>
<!-- Generator: Adobe Illustrator 24.0.0, SVG Export Plug-In . SVG Version: 6.00 Build 0)  -->
<svg version="1.1" id="图层_1" xmlns="http://www.w3.org/2000/svg" xmlns:xlink="http://www.w3.org/1999/xlink" x="0px" y="0px"
	 viewBox="0 0 200 200" style="enable-background:new 0 0 200 200;" xml:space="preserve">
<style type="text/css">
	.st0{fill:#3D87FD;}
</style>
<path class="st0" d="M185.3,134.88c-1.37-17.22-8.74-31.65-20.73-43.84c-6.87-7.01-14.53-13.04-23.19-17.73
	c-4.17-2.25-8.43-4.32-13-5.74l-0.07-0.04c-3.22-0.96-3.25-1.01-5.93,0.97c-3.9,2.87-8.37,4.24-13.03,5.17
	c-6.1,1.21-12.24,1.43-18.43,0.87c-4.02-0.36-8-1.09-11.73-2.71c-1.47-0.63-2.85-1.47-4.22-2.3c-1.25-0.77-2.46-0.79-3.8-0.26
	c-8.65,3.39-16.5,8.06-23.55,14.12c-7.3,6.28-13.61,13.39-18.47,21.74c-4.4,7.53-7.34,15.59-8.65,24.22
	c-1.27,8.54-1.07,17.04,1.09,25.43c2.42,9.52,7.78,16.86,16.37,21.76c6.01,3.44,12.55,5.4,19.27,6.82
	c5.64,1.2,11.35,1.84,17.09,2.34c0.29,0.02,0.57,0.12,0.85,0.18h55.94c1.34-0.18,2.7-0.39,4.04-0.53c7.74-0.78,15.33-2.17,22.7-4.67
	c6.44-2.2,12.34-5.34,17.15-10.3c3.9-4.05,6.62-8.79,8.3-14.15C185.49,149.29,185.88,142.12,185.3,134.88L185.3,134.88z
	 M108.8,149.44c-1.75,0.85-3.63,1.43-5.63,2.22c0,2.26,0.04,4.65,0,7.01c-0.04,1.49-0.08,1.57-1.59,1.62
	c-2.11,0.06-4.22-0.01-6.31-0.02c-0.52,0-0.78-0.25-0.81-0.73c-0.1-1.15-0.18-2.3-0.2-3.45c-0.04-1.27-0.01-2.55-0.01-3.87
	c-1.89-0.34-3.76-0.62-5.62-1.01c-2.68-0.56-5.29-1.33-7.51-3.06c-0.23-0.18-0.46-0.61-0.38-0.84c0.77-2.81,1.62-5.63,2.44-8.43
	c0.02-0.12,0.1-0.22,0.2-0.39c0.85,0.35,1.7,0.71,2.54,1.04c3.33,1.37,6.73,2.49,10.37,2.62c2.23,0.07,4.38-0.07,6.28-1.46
	c3.29-2.43,3.41-6.42,0.1-8.8c-1.39-1.01-3.05-1.68-4.63-2.38c-2.89-1.29-5.91-2.33-8.7-3.82c-3.52-1.86-6.29-4.59-7.55-8.52
	c-2.16-6.74,0.61-13.76,6.86-17.32c1.69-0.95,3.58-1.53,5.41-2.19c0.56-0.2,0.74-0.39,0.74-0.96c0.02-2.17,0.08-4.32,0.13-6.49
	c0.02-0.85,0.4-1.2,1.22-1.17c2.13,0.06,4.26,0.12,6.4,0.11c0.85,0,1.1,0.46,1.14,1.14c0.07,1.04,0.1,2.07,0.12,3.11
	c0.01,0.77,0,1.55-0.06,2.31c-0.06,0.75,0.19,1.04,0.98,1.17c3.1,0.53,6.22,1.02,9.07,2.47c1.7,0.86,1.7,0.85,1.21,2.73
	c-0.64,2.49-1.21,5.01-2.49,7.4c-0.43-0.19-0.85-0.36-1.27-0.54c-3.67-1.47-7.45-2.49-11.41-2.41c-1.22,0.02-2.5,0.25-3.64,0.69
	c-2.77,1.08-3.59,4.58-1.72,6.89c1.1,1.37,2.59,2.17,4.14,2.85c3.21,1.4,6.49,2.62,9.64,4.14c3.21,1.53,5.94,3.73,7.64,6.96
	C119.29,134.59,118.3,144.78,108.8,149.44L108.8,149.44z M108.8,149.44"/>
<path class="st0" d="M65.78,39.42c2.4,5.8,4.74,11.63,7.02,17.49c1.01,2.6,2.84,4.24,5.43,4.96c2.9,0.8,5.85,1.55,8.82,2.08
	c8.21,1.45,16.36,1.27,24.35-1.34c2.24-0.73,4.4-1.75,6.46-2.89c2.01-1.11,3.08-2.93,2.79-5.35c-0.11-0.97-0.18-1.95-0.12-2.93
	c0.47-9.01,3.13-17.38,7.28-25.33c0.78-1.47,1.44-3.09,1.77-4.72c0.67-3.25-0.92-5.57-4.04-6.22c-0.72-0.16-1.47-0.16-2.22-0.13
	c-2.41,0.11-4.6,0.92-6.62,2.26c-1.17,0.8-2.38,1.59-3.67,2.16c-2.41,1.04-4.41,0.26-5.55-2.11c-0.51-1.03-0.81-2.16-1.34-3.19
	c-0.79-1.55-1.51-3.19-2.59-4.52c-3.93-4.86-10.91-4.43-14.23,0.87c-0.89,1.41-1.53,3.01-2.08,4.59c-1.11,3.22-3.29,5.21-6.65,5.65
	c-2.64,0.36-5.32,0.38-7.98,0.55c0-0.07,0-0.16-0.01-0.23c-0.65,0-1.29-0.04-1.95,0.01c-1.95,0.13-3.95,0.07-5.83,0.48
	c-3.09,0.66-4.49,2.84-4.05,5.9c0.17,1.04,0.55,2.07,0.97,3.04C63.06,33.49,64.53,36.41,65.78,39.42L65.78,39.42z M65.78,39.42"/>
</svg>
