<?xml version="1.0" standalone="no"?><!DOCTYPE svg PUBLIC "-//W3C//DTD SVG 1.1//EN" "http://www.w3.org/Graphics/SVG/1.1/DTD/svg11.dtd"><svg t="1528601434461" class="icon" style="" viewBox="0 0 1024 1024" version="1.1" xmlns="http://www.w3.org/2000/svg" p-id="3568" xmlns:xlink="http://www.w3.org/1999/xlink" width="200" height="200"><defs><style type="text/css"></style></defs><path d="M1.92 205.824v572.992h1020.16V205.824H1.92z m988.32 541.152H33.76V237.664h956.48v509.312z m0 0M787.584 827.2a15.936 15.936 0 0 1-15.936 15.936H191.808a15.936 15.936 0 0 1 0-31.872h579.872c8.832 0 15.904 7.104 15.904 15.936z m0 0" p-id="3569"></path><path d="M255.136 542.112L207.36 663.584h-25.92L318.88 319.104h25.856l137.408 344.512h-25.888l-49.792-121.472H255.136z m143.36-19.904l-47.776-121.472a384.832 384.832 0 0 1-9.984-29.888 1087.232 1087.232 0 0 0-9.984-23.904c-3.968 14.656-10.624 31.904-19.904 51.776L263.04 522.176h135.456z m0 0M537.888 325.056c17.28-2.624 33.152-4.64 47.776-5.984 18.56-1.312 36.544-1.984 53.824-1.984 74.304 0 128.064 18.624 161.28 55.744 27.84 29.248 41.824 66.432 41.824 111.52 0 21.248-4.032 42.496-11.968 63.68a168.416 168.416 0 0 1-35.84 61.76c-35.808 38.528-92.256 57.728-169.248 57.728-17.248 0-31.84-0.672-43.808-1.984-15.936 0-30.528-0.672-43.808-1.984V325.056z m23.904 318.592c7.968 0 17.92 0.672 29.888 2.016h37.856c62.368 0 110.144-15.968 143.328-47.776 29.184-27.872 43.808-65.728 43.808-113.504 0-43.808-13.952-78.976-41.856-105.536-30.496-27.872-76.32-41.856-137.376-41.856-14.624 0-29.184 0.672-43.776 1.984a191.872 191.872 0 0 0-31.872 6.016v298.656z m0 0" p-id="3570"></path></svg>