<?xml version="1.0" standalone="no"?><!DOCTYPE svg PUBLIC "-//W3C//DTD SVG 1.1//EN" "http://www.w3.org/Graphics/SVG/1.1/DTD/svg11.dtd"><svg t="1531736925595" class="icon" style="" viewBox="0 0 1024 1024" version="1.1" xmlns="http://www.w3.org/2000/svg" p-id="2049" xmlns:xlink="http://www.w3.org/1999/xlink" width="64" height="64"><defs><style type="text/css"></style></defs><path d="M593.235674 83.916225c24.078395 24.064069 24.078395 63.071478 0 87.134523L448.897312 315.359434c-24.078395 24.048719-63.085804 24.048719-87.134523 0l0 0c-24.034393-24.048719-24.034393-63.011102 0-87.104847L506.145154 83.916225C530.193873 59.912531 569.14193 59.912531 593.235674 83.916225L593.235674 83.916225z" p-id="2050"></path><path d="M878.152772 368.834346c24.020066 24.064069 24.020066 63.085804 0 87.120197l-144.307663 144.337339c-24.109094 24.093744-63.056128 24.093744-87.165222 0l0 0c-24.064069-24.064069-24.064069-63.055105 0-87.089497l144.352689-144.368038C815.12632 344.785627 854.119403 344.785627 878.152772 368.834346L878.152772 368.834346z" p-id="2051"></path><path d="M477.952045 333.125053l36.051077 36.007075L99.407546 783.719518c-21.271466 21.300119-21.449521 55.672974-0.341784 76.766384 21.034059 21.063735 55.42124 20.914332 76.722382-0.385786l414.5659-414.573063 35.159778 35.159778 130.49303-130.420375L608.34172 202.631 477.952045 333.125053z" p-id="2052"></path><path d="M498.583944 779.500427l397.646556 0 0 59.476603-397.646556 0 0-59.476603Z" p-id="2053"></path><path d="M457.304795 880.419907l484.290915 0 0 80.063477-484.290915 0 0-80.063477Z" p-id="2054"></path></svg>