<?xml version="1.0" standalone="no"?><!DOCTYPE svg PUBLIC "-//W3C//DTD SVG 1.1//EN" "http://www.w3.org/Graphics/SVG/1.1/DTD/svg11.dtd"><svg t="1528601200860" class="icon" style="" viewBox="0 0 1025 1024" version="1.1" xmlns="http://www.w3.org/2000/svg" p-id="2217" xmlns:xlink="http://www.w3.org/1999/xlink" width="200.1953125" height="200"><defs><style type="text/css"></style></defs><path d="M447.021033 64.415098 63.367183 64.415098l0 383.652827 383.652827 0L447.021033 64.415098 447.021033 64.415098zM383.063374 384.109243l-254.713131 0L128.350243 128.401411l254.712107 0L383.063374 384.109243 383.063374 384.109243zM575.320108 960.022898l384.677205 0L959.997314 576.369048 575.320108 576.369048 575.320108 960.022898 575.320108 960.022898zM63.367183 960.022898l384.676182 0L448.043365 576.369048 63.367183 576.369048 63.367183 960.022898zM128.34922 640.328753l253.689775 0 0 255.704762-253.689775 0L128.34922 640.328753zM575.320108 64.415098l0 383.652827 384.677205 0L959.997314 64.415098 575.320108 64.415098zM893.963267 384.109243 639.279814 384.109243 639.279814 128.401411l254.683453 0L893.963267 384.109243 893.963267 384.109243z" p-id="2218"></path></svg>