<?xml version="1.0" standalone="no"?><!DOCTYPE svg PUBLIC "-//W3C//DTD SVG 1.1//EN" "http://www.w3.org/Graphics/SVG/1.1/DTD/svg11.dtd"><svg t="1531736843966" class="icon" style="" viewBox="0 0 1024 1024" version="1.1" xmlns="http://www.w3.org/2000/svg" p-id="1736" xmlns:xlink="http://www.w3.org/1999/xlink" width="64" height="64"><defs><style type="text/css"></style></defs><path d="M1024 676.571429l0 109.714286q0 7.428571-5.428571 12.857143t-12.857143 5.428571l-786.285714 0 0 109.714286q0 7.428571-5.428571 12.857143t-12.857143 5.428571q-6.857143 0-13.714286-5.714286l-182.285714-182.857143q-5.142857-5.142857-5.142857-12.571429 0-8 5.142857-13.142857l182.857143-182.857143q5.142857-5.142857 13.142857-5.142857 7.428571 0 12.857143 5.428571t5.428571 12.857143l0 109.714286 786.285714 0q7.428571 0 12.857143 5.428571t5.428571 12.857143zm0-310.857143q0 8-5.142857 13.142857l-182.857143 182.857143q-5.142857 5.142857-13.142857 5.142857-7.428571 0-12.857143-5.428571t-5.428571-12.857143l0-109.714286-786.285714 0q-7.428571 0-12.857143-5.428571t-5.428571-12.857143l0-109.714286q0-7.428571 5.428571-12.857143t12.857143-5.428571l786.285714 0 0-109.714286q0-8 5.142857-13.142857t13.142857-5.142857q6.857143 0 13.714286 5.714286l182.285714 182.285714q5.142857 5.142857 5.142857 13.142857z" p-id="1737"></path></svg>