<?xml version="1.0" standalone="no"?><!DOCTYPE svg PUBLIC "-//W3C//DTD SVG 1.1//EN" "http://www.w3.org/Graphics/SVG/1.1/DTD/svg11.dtd"><svg t="1528704377295" class="icon" style="" viewBox="0 0 1025 1024" version="1.1" xmlns="http://www.w3.org/2000/svg" p-id="6298" xmlns:xlink="http://www.w3.org/1999/xlink" width="200.1953125" height="200"><defs><style type="text/css"></style></defs><path d="M222.141626 316.810791c60.203322 0 107.23417-64.90321 114.395904-157.717997 4.124391-53.681029-5.786936-96.523542-28.614962-123.635819C288.099913 11.925565 259.261146 0 222.141626 0S156.151368 11.925565 136.488572 35.456975c-22.987886 27.144249-32.867241 69.826901-28.74285 123.635819 7.129761 92.814787 54.192581 157.717997 114.395904 157.717997zM321.734482 341.045585a30.437367 30.437367 0 0 0-13.396278-3.00537 32.291745 32.291745 0 0 0-16.209816 4.124391c-0.351692 0.255776-40.636443 24.234795-69.95479 24.234795-29.350318 0-69.603097-23.979018-69.986761-24.234795a34.11415 34.11415 0 0 0-29.606095-1.119021C109.983764 347.184214 0 403.486949 0 448.375671h444.25128c0-44.888722-109.983764-101.191457-122.516798-107.330086zM1024.031972 399.362558c0 22.444361-16.817285 40.508555-37.151492 40.508555H666.009242c-20.589984 0-37.247409-18.064194-37.247409-40.508555V49.172974c0-22.316473 16.657425-40.540527 37.247409-40.540527h320.871238c20.334208 0 37.151492 18.224054 37.151492 40.540527v350.189584zM1024.031972 983.395529c0 22.444361-16.817285 40.636443-37.151492 40.636443H666.009242c-20.589984 0-37.247409-18.192082-37.247409-40.636443V633.205945c0-22.316473 16.657425-40.508555 37.247409-40.508555h320.871238c20.334208 0 37.151492 18.16011 37.151492 40.508555v350.189584zM453.171475 983.395529c0 22.444361-16.689397 40.636443-37.11952 40.636443H95.212689c-20.589984 0-37.11952-18.192082-37.119521-40.636443V633.205945c0-22.316473 16.561509-40.508555 37.119521-40.508555h320.839266c20.430124 0 37.11952 18.16011 37.11952 40.508555v350.189584z" p-id="6299"></path></svg>