<?xml version="1.0" encoding="utf-8"?>
<!-- Generator: Adobe Illustrator 24.0.0, SVG Export Plug-In . SVG Version: 6.00 Build 0)  -->
<svg version="1.1" id="图层_1" xmlns="http://www.w3.org/2000/svg" xmlns:xlink="http://www.w3.org/1999/xlink" x="0px" y="0px"
	 viewBox="0 0 200 200" style="enable-background:new 0 0 200 200;" xml:space="preserve">
<style type="text/css">
	.st0{fill:#3D87FD;}
</style>
<path class="st0" d="M100,8.96c-50.11,0-90.73,40.62-90.73,90.73s40.62,90.73,90.73,90.73s90.73-40.62,90.73-90.73
	S150.11,8.96,100,8.96z M112.47,168.48c-3.04,2.9-6.7,4.35-10.98,4.35c-5.44,0-9.78-1.49-13-4.48c-3.22-2.99-4.83-6.53-4.83-10.63
	c0-4.33,1.64-7.92,4.92-10.76c3.28-2.84,7.26-4.26,11.94-4.26c4.51,0,8.39,1.42,11.64,4.26c3.25,2.84,4.87,6.43,4.87,10.76
	C117.04,162,115.51,165.58,112.47,168.48z M138.11,83.87c-2.87,5.27-8.14,11.04-15.81,17.3c-6.15,5.15-9.95,9.16-11.42,12.03
	c-1.46,2.87-2.19,5.91-2.19,9.13c0,3.16,0.79,6.23,2.37,9.22h-23.8c-1.41-3.81-2.11-7.73-2.11-11.77c0-9.89,4.68-18.79,14.05-26.7
	c5.8-4.92,9.72-9.01,11.77-12.29c2.05-3.28,3.07-6.82,3.07-10.63c0-4.16-1.46-7.57-4.39-10.23c-2.93-2.66-6.7-4-11.33-4
	c-10.83,0-20.9,4.16-30.21,12.47V41.2c9.78-5.85,20.9-8.78,33.37-8.78c12.65,0,22.63,2.93,29.94,8.78
	c7.32,5.85,10.98,14.2,10.98,25.03C142.41,72.72,140.98,78.6,138.11,83.87z"/>
</svg>
