<?xml version="1.0" standalone="no"?><!DOCTYPE svg PUBLIC "-//W3C//DTD SVG 1.1//EN" "http://www.w3.org/Graphics/SVG/1.1/DTD/svg11.dtd"><svg t="1528601470288" class="icon" style="" viewBox="0 0 1024 1024" version="1.1" xmlns="http://www.w3.org/2000/svg" p-id="4291" xmlns:xlink="http://www.w3.org/1999/xlink" width="200" height="200"><defs><style type="text/css"></style></defs><path d="M356.887 840.151c-23.889 23.889-62.614 23.889-86.504 0l-86.534-86.534c-23.889-23.889-23.889-62.614 0-86.504l216.932-216.962c-46.892-27.621-108.068-21.687-148.353 18.567l-155.113 155.113c-47.779 47.779-47.779 125.228 0 173.038l129.786 129.786c47.779 47.779 125.259 47.779 173.038 0l155.113-155.113c40.254-40.254 46.188-101.431 18.567-148.353l-216.932 216.962zM926.654 227.101l-129.786-129.755c-47.779-47.779-125.259-47.779-173.038 0l-155.113 155.113c-40.254 40.254-46.188 101.431-18.567 148.353l216.932-216.932c23.889-23.889 62.614-23.889 86.504 0l86.534 86.534c23.889 23.889 23.889 62.614 0 86.504l-216.932 216.932c46.892 27.591 108.068 21.687 148.353-18.567l155.113-155.113c47.779-47.809 47.779-125.289 0-173.068zM346.059 656.285l21.626 21.626c17.925 17.925 46.953 17.925 64.878 0l245.348-245.348c17.925-17.925 17.925-46.984 0-64.878l-21.626-21.626c-17.925-17.925-46.953-17.925-64.878 0l-245.348 245.348c-17.925 17.925-17.925 46.984 0 64.878z" p-id="4292"></path></svg>