<?xml version="1.0" encoding="utf-8"?>
<!-- Generator: Adobe Illustrator 24.0.0, SVG Export Plug-In . SVG Version: 6.00 Build 0)  -->
<svg version="1.1" id="图层_1" xmlns="http://www.w3.org/2000/svg" xmlns:xlink="http://www.w3.org/1999/xlink" x="0px" y="0px"
	 viewBox="0 0 200 200" style="enable-background:new 0 0 200 200;" xml:space="preserve">
<style type="text/css">
	.st0{enable-background:new    ;}
	.st1{fill:#3D86FF;}
</style>
<g class="st0">
	<path class="st1" d="M119.26,8.65H79.37c-4.89,0-8.8,4.35-8.8,9.73c0,5.39,3.92,9.76,8.8,9.76h40.13c4.65,0,8.56-4.37,8.56-9.76
		C128.07,13,124.15,8.65,119.26,8.65L119.26,8.65z M162.56,15.14H142.7c0.2,1.07,0.32,2.14,0.32,3.24
		c0.01,8.19-5.94,16.25-13.01,16.25H69c-7.44,0-13.39-8.06-13.39-16.25c0.01-1.09,0.12-2.17,0.33-3.24h-20.1
		c-16.16,0-20.13,9.16-20.13,22.37v130.9c0,14.19,5.68,22.14,21.35,22.14h124.29c15.66,0,23.28-6.23,23.28-22.13V37.52
		C184.62,24.3,177.49,15.14,162.56,15.14L162.56,15.14z M142.16,144.38H55.79c-3.18,0-6.36-3.9-6.36-7.09c0-3.18,2.69-5.9,5.87-5.9
		h86.12c3.18,0,5.87,2.47,6.11,5.9C147.54,140.48,145.34,144.38,142.16,144.38L142.16,144.38z M142.51,109.72H56.14
		c-3.18,0-5.21-3.42-5.21-6.61c0-3.19,2.69-6.38,5.87-6.38h86.12c3.18,0,5.87,2.96,6.11,6.38
		C149.04,106.3,145.68,109.72,142.51,109.72L142.51,109.72z M142.51,74.13H56.14c-3.18,0-5.21-3.42-5.21-6.61
		c0-3.19,2.69-6.38,5.87-6.38h86.12c3.18,0,5.87,2.96,6.11,6.38C149.04,70.7,145.68,74.13,142.51,74.13L142.51,74.13z M142.51,74.13
		"/>
</g>
</svg>
