<?xml version="1.0" encoding="utf-8"?>
<!-- Generator: Adobe Illustrator 24.0.0, SVG Export Plug-In . SVG Version: 6.00 Build 0)  -->
<svg version="1.1" id="图层_1" xmlns="http://www.w3.org/2000/svg" xmlns:xlink="http://www.w3.org/1999/xlink" x="0px" y="0px"
	 viewBox="0 0 200 200" style="enable-background:new 0 0 200 200;" xml:space="preserve">
<style type="text/css">
	.st0{fill:#3D87FD;}
</style>
<path class="st0" d="M97.95,8.2C48.84,8.2,9.04,48.01,9.04,97.12c0,49.11,39.81,88.92,88.92,88.92c49.11,0,88.92-39.81,88.92-88.92
	C186.87,48.01,147.06,8.2,97.95,8.2z M142.56,122.44H93.59c-4.74-0.02-8.57-3.84-8.57-8.59v-10.18h0.36V55.52
	c0-5.18,4.2-9.38,9.38-9.38c5.18,0.02,9.36,4.2,9.36,9.38v48.15h38.43c5.18,0,9.38,4.2,9.38,9.38
	C151.94,118.24,147.74,122.44,142.56,122.44z"/>
</svg>
