<?xml version="1.0" standalone="no"?><!DOCTYPE svg PUBLIC "-//W3C//DTD SVG 1.1//EN" "http://www.w3.org/Graphics/SVG/1.1/DTD/svg11.dtd"><svg t="1531737024151" class="icon" style="" viewBox="0 0 1024 1024" version="1.1" xmlns="http://www.w3.org/2000/svg" p-id="2333" xmlns:xlink="http://www.w3.org/1999/xlink" width="64" height="64"><defs><style type="text/css"></style></defs><path d="M223.3 451.7L172.9 465c-15.2 4-30.8-4.9-34.8-19.8-4.1-14.9 4.9-30.3 20.1-34.3l116.6-30.7c7.6-2 15.3-0.8 21.6 2.8 6.3 3.6 11.2 9.5 13.3 17l31.2 114.7c4.1 14.9-4.9 30.3-20.1 34.3s-30.8-4.9-34.8-19.8l-13.4-49.3-89.8 155.9c-36.5 63.4-36.5 63.4-45.7 79.3-35.9 62.3-10.8 104.5 61.9 104.5h142c15.7 0 28.5 12.5 28.5 28s-12.7 28-28.5 28H198.9c-116.3 0-168.8-88.4-111.4-188.1 9.1-15.9 9.1-15.9 45.7-79.3l90.1-156.5zM759.5 381.3l14-51.2c4.1-14.9 19.7-23.8 34.8-19.8 15.2 4 24.2 19.3 20.1 34.3l-31.2 114.7c-2 7.5-7 13.4-13.3 17s-14 4.8-21.6 2.8l-116.6-30.7c-15.2-4-24.2-19.3-20.1-34.3 4.1-14.9 19.7-23.8 34.8-19.8l48.4 12.8c-44.3-76.9-53.7-93.2-113.9-197.7C583 188.7 583 188.7 571.1 168.1c-35.7-62-83.3-62-119 0l-40.6 70.6C396.3 265 396.3 265 383.6 287c-7.7 13.4-25.1 18.2-38.8 10.6-13.7-7.6-18.5-24.7-10.7-38.2 12.7-22.1 12.7-22.1 27.9-48.5C392.5 158 392.5 158 402.6 140.3c57.5-99.8 160.5-99.9 218 0C632.5 161 632.5 161 644.4 181.6l115.1 199.7zM573.3 875.6l36.8 36.2c11.1 10.9 11.1 28.7 0 39.6-11.1 10.9-29.1 10.9-40.2 0l-85.4-84c-5.6-5.5-8.3-12.6-8.3-19.8s2.8-14.3 8.3-19.8l85.4-84c11.1-10.9 29.1-10.9 40.2 0 11.1 10.9 11.1 28.7 0 39.6l-36.8 36.2H825c72.3 0 97.2-42.3 61.4-104.5-10.5-18.3-10.5-18.3-42.2-73.2-14.4-24.9-14.4-24.9-26.8-46.5-7.7-13.4-2.9-30.5 10.7-38.2 13.7-7.6 31-2.9 38.8 10.6 12.4 21.5 12.4 21.5 26.8 46.5 31.6 54.9 31.6 54.9 42.2 73.2 57.3 99.4 5.1 188.1-110.9 188.1H573.3z" fill="#5E676F" p-id="2334"></path></svg>