<?xml version="1.0" encoding="utf-8"?>
<!-- Generator: Adobe Illustrator 24.0.0, SVG Export Plug-In . SVG Version: 6.00 Build 0)  -->
<svg version="1.1" id="图层_1" xmlns="http://www.w3.org/2000/svg" xmlns:xlink="http://www.w3.org/1999/xlink" x="0px" y="0px"
	 viewBox="0 0 200 200" style="enable-background:new 0 0 200 200;" xml:space="preserve">
<style type="text/css">
	.st0{fill:#3D87FD;}
</style>
<path class="st0" d="M100,7.38C48.85,7.38,7.38,48.85,7.38,100c0,51.15,41.47,92.62,92.62,92.62c51.15,0,92.62-41.47,92.62-92.62
	C192.62,48.85,151.15,7.38,100,7.38z M126.59,105.65h-15.98v7.99h15.98c4.41,0,7.99,3.58,7.99,7.99c0,4.41-3.58,7.99-7.99,7.99
	h-15.98v9.99c0,5.52-4.47,9.99-9.99,9.99c-5.52,0-9.99-4.47-9.99-9.99v-9.99H74.64c-4.41,0-7.99-3.58-7.99-7.99
	c0-4.42,3.58-7.99,7.99-7.99h15.99v-7.99H74.64c-4.41,0-7.99-3.58-7.99-7.99c0-4.42,3.58-7.99,7.99-7.99h15.99v-0.55L72.89,71.39
	c-3.14-3.15-3.14-8.24,0-11.39c3.14-3.14,8.24-3.14,11.38,0l16.21,16.21l16.27-16.27c3.14-3.14,8.24-3.14,11.38,0
	c3.14,3.14,3.14,8.24,0,11.38l-17.53,17.53v0.82h15.98c4.41,0,7.99,3.57,7.99,7.99C134.58,102.07,131,105.65,126.59,105.65z"/>
</svg>
