<?xml version="1.0" encoding="utf-8"?>
<!-- Generator: Adobe Illustrator 24.0.0, SVG Export Plug-In . SVG Version: 6.00 Build 0)  -->
<svg version="1.1" id="图层_1" xmlns="http://www.w3.org/2000/svg" xmlns:xlink="http://www.w3.org/1999/xlink" x="0px" y="0px"
	 viewBox="0 0 200 200" style="enable-background:new 0 0 200 200;" xml:space="preserve">
<style type="text/css">
	.st0{fill:#3D87FD;}
</style>
<path class="st0" d="M49.56,16.57c-8.53,0-15.45,15.45-15.45,15.45L18.02,77.92c0,16.56,13.43,29.99,29.99,29.99
	c12.04,0,27.57-18.32,27.57-18.32s15.26,18.32,27.3,18.32c12.2,0,21.24-7.5,27.61-18.32c0,0,15.23,18.32,27.26,18.32
	c16.56,0,29.99-13.43,29.99-29.99l-16.08-45.89c0,0-6.92-15.45-15.45-15.45H49.56z M49.56,16.57"/>
<path class="st0" d="M159.51,131.12c-12.04,0-27.26-14.18-27.26-14.18c-4.69,8.36-17.17,14.18-29.37,14.18
	c-12.04,0-25.54-14.18-25.54-14.18s-15.53,14.18-27.57,14.18c-7.59,0-14.52-0.12-19.8-3.84v40.01c0,4.92,4.02,8.94,8.94,8.94h127.93
	c4.92,0,8.94-4.02,8.94-8.94v-40.02C171.1,129.71,165.51,131.12,159.51,131.12L159.51,131.12z M159.51,131.12"/>
</svg>
