<?xml version="1.0" encoding="utf-8"?>
<!-- Generator: Adobe Illustrator 24.0.0, SVG Export Plug-In . SVG Version: 6.00 Build 0)  -->
<svg version="1.1" id="图层_1" xmlns="http://www.w3.org/2000/svg" xmlns:xlink="http://www.w3.org/1999/xlink" x="0px" y="0px"
	 viewBox="0 0 200 200" style="enable-background:new 0 0 200 200;" xml:space="preserve">
<style type="text/css">
	.st0{fill:#3D87FD;}
</style>
<g>
	<path class="st0" d="M122.92,133.4c0,0-4.67,5.71-11.67,0c-7.01-5.71-31.13-32.56-31.13-32.56s-5.71-6.88-12.19,0
		c-6.49,6.88-26.46,36.45-26.46,36.45s-6.22,10.64-15.31,0c-7.81-9.16-14.47-5.24-16.17-3.98v40.15c0,6.88,5.57,12.45,12.45,12.45
		h149.41c6.88,0,12.45-5.57,12.45-12.45V63.76c-0.47,0.09-0.97,0.28-1.47,0.54L122.92,133.4z M31.69,118.35
		c8.02,0,14.53-6.5,14.53-14.53c0-2.06-0.44-4.01-1.21-5.78l25.47-31.45c1.44,0.48,2.94,0.8,4.54,0.8c2.18,0,4.23-0.51,6.08-1.37
		l22.27,22.27c-0.47,1.43-0.79,2.93-0.79,4.52c0,8.02,6.5,14.53,14.53,14.53c8.02,0,14.53-6.5,14.53-14.53
		c0-1.79-0.37-3.48-0.96-5.06l34.7-40.56c1.39,0.44,2.86,0.75,4.4,0.75c8.02,0,14.53-6.5,14.53-14.53c0-8.02-6.5-14.53-14.53-14.53
		c-8.03,0-14.53,6.5-14.53,14.53c0,1.86,0.38,3.63,1.02,5.26l-34.59,40.42c-1.45-0.49-2.97-0.81-4.58-0.81
		c-1.82,0-3.54,0.37-5.15,0.98L89.07,56.38c0.28-1.13,0.48-2.29,0.48-3.51c0-8.02-6.5-14.53-14.53-14.53
		c-8.02,0-14.53,6.5-14.53,14.53c0,1.8,0.37,3.49,0.96,5.08L35.59,89.89c-1.25-0.35-2.53-0.59-3.89-0.59
		c-8.02,0-14.53,6.5-14.53,14.53C17.17,111.85,23.67,118.35,31.69,118.35L31.69,118.35z M31.69,118.35"/>
</g>
</svg>
