<?xml version="1.0" standalone="no"?><!DOCTYPE svg PUBLIC "-//W3C//DTD SVG 1.1//EN" "http://www.w3.org/Graphics/SVG/1.1/DTD/svg11.dtd"><svg t="1528601373013" class="icon" style="" viewBox="0 0 1024 1024" version="1.1" xmlns="http://www.w3.org/2000/svg" p-id="2901" xmlns:xlink="http://www.w3.org/1999/xlink" width="200" height="200"><defs><style type="text/css"></style></defs><path d="M920.3328 0 102.22464 0C45.7664 0 0 45.7664 0 102.2144l0 511.14624c0 56.44928 45.7664 102.2144 102.22464 102.2144l178.98368 0 230.06976 306.6752 230.06976-306.6752L920.3328 715.57504c56.44928 0 102.22464-45.7664 102.22464-102.2144L1022.55744 102.2144C1022.55872 45.7664 976.78208 0 920.3328 0zM230.4 394.88c-42.41536 0-76.8-34.38464-76.8-76.8s34.38464-76.8 76.8-76.8 76.8 34.38464 76.8 76.8S272.81536 394.88 230.4 394.88zM512 394.88c-42.41536 0-76.8-34.38464-76.8-76.8s34.38464-76.8 76.8-76.8 76.8 34.38464 76.8 76.8S554.41536 394.88 512 394.88zM793.6 394.88c-42.41536 0-76.8-34.38464-76.8-76.8s34.38464-76.8 76.8-76.8 76.8 34.38464 76.8 76.8S836.01536 394.88 793.6 394.88z" p-id="2902"></path></svg>