<?xml version="1.0" standalone="no"?><!DOCTYPE svg PUBLIC "-//W3C//DTD SVG 1.1//EN" "http://www.w3.org/Graphics/SVG/1.1/DTD/svg11.dtd"><svg t="1531737106827" class="icon" style="" viewBox="0 0 1024 1024" version="1.1" xmlns="http://www.w3.org/2000/svg" p-id="3033" xmlns:xlink="http://www.w3.org/1999/xlink" width="64" height="64"><defs><style type="text/css"></style></defs><path d="M874.526 1019.963 147.741 1019.963c-58.582 0-106.241-47.66-106.241-106.242L41.5 110.741C41.5 52.16 89.16 4.5 147.741 4.5l726.785 0c58.582 0 106.241 47.66 106.241 106.241l0 802.979C980.768 972.303 933.108 1019.963 874.526 1019.963zM147.741 68.5c-23.292 0-42.241 18.949-42.241 42.241l0 802.979c0 23.292 18.949 42.242 42.241 42.242l726.785 0c23.292 0 42.241-18.95 42.241-42.242L916.767 110.741c0-23.292-18.949-42.241-42.241-42.241L147.741 68.5z" p-id="3034"></path><path d="M557.5 260.5l249 0 0 64-249 0 0-64Z" p-id="3035"></path><path d="M174.5 412.5l632 0 0 64-632 0 0-64Z" p-id="3036"></path><path d="M174.5 565.5l632 0 0 64-632 0 0-64Z" p-id="3037"></path><path d="M174.5 721.5l632 0 0 64-632 0 0-64Z" p-id="3038"></path></svg>